<svg width="158" height="83" viewBox="0 0 158 83" fill="none" xmlns="http://www.w3.org/2000/svg">
<path d="M44.8644 36.2586C50.2195 34.6968 53.8781 29.1424 56.7466 24.7736C58.0947 22.7204 60.3276 20.3947 62.2344 18.8699C65.4197 16.4313 69.1417 14.5387 73.1913 14.6011C80.8424 14.7192 81.0395 22.372 76.1926 26.5029C74.0509 28.3282 71.8758 29.7583 69.0451 30.3171C68.9847 30.329 68.9589 30.2693 68.9185 30.2244C69.2381 29.7729 71.1374 29.1555 71.7458 28.8118C73.9978 27.4752 76.7107 25.6672 77.8759 23.2402C80.841 17.0641 75.9464 14.0425 70.2238 15.6213C65.6439 16.8849 61.9709 19.5143 59.115 23.2847C57.7352 25.1063 56.6638 27.1304 55.3069 28.9672C53.5319 31.35 50.7664 34.1047 48.2048 35.6441C47.3505 36.1574 46.2392 36.5413 45.3007 36.8482C47.6645 40.5944 42.4732 45.4075 43.2341 49.1953C43.784 51.9324 48.5172 51.6796 50.2598 50.5087C50.3156 50.4711 50.2468 49.9395 50.2658 49.8116C50.7303 46.6839 52.9171 43.7536 54.9677 41.4527C56.5024 39.7306 58.8405 37.7203 61.2745 37.6497C61.7672 37.6354 62.0724 37.8456 62.4817 38.0812C63.6245 39.9715 62.6182 42.0023 61.7455 43.8021C62.3413 43.6886 62.9399 43.6018 63.494 43.352C66.9909 41.7758 69.1281 37.2657 73.4887 37.6213C73.5694 37.6803 73.6489 37.741 73.727 37.8033C74.0714 38.0797 74.2083 38.3463 74.2481 38.7976C74.2974 39.3277 74.1275 39.8548 73.7779 40.2563C73.3431 40.7535 72.5674 41.1455 71.9991 40.6196C71.715 39.7224 73.0728 39.1468 73.2144 38.4429L73.1216 38.3287C69.826 37.8148 64.3542 46.1402 63.496 49.0907C63.281 49.8301 62.459 51.7329 64.1109 51.4053C65.8432 51.0616 67.1397 49.7714 68.5421 48.8188C68.9502 48.5415 69.7715 48.3269 70.1464 48.7837C70.7199 49.4643 69.6206 50.2632 69.5644 50.8265C71.8175 51.8631 79.3888 38.8027 83.3939 37.564C83.7375 37.4576 84.2133 37.2889 84.54 37.4603C84.6672 37.7569 84.5051 38.1417 84.3641 38.4138C82.2445 42.5013 78.8388 46.8993 77.2423 51.1915C78.3035 50.2007 78.848 49.2313 79.727 48.0877C82.6733 44.2549 84.8861 40.6413 88.5198 37.3927C88.9396 37.3687 89.5581 37.2714 89.8782 37.4969C89.8799 37.565 89.8815 37.6497 89.8831 37.7505C89.1277 39.1262 88.1088 40.8472 87.3258 42.1668C86.3232 43.8606 85.3457 45.5693 84.3957 47.2928C84.0058 47.9925 82.5079 50.3359 82.9351 51.0102C83.1312 51.106 83.479 51.1586 83.6686 51.0694C85.092 50.4005 87.4498 48.4831 88.3447 47.2524C88.7394 46.7086 89.2476 45.4784 89.6343 44.8455C91.6631 41.6182 94.855 38.3736 98.547 37.1894C99.0293 37.0349 100.125 37.1355 100.141 37.7866C100.205 40.4771 96.8319 42.6584 94.8193 43.9186C93.6149 44.6731 92.0586 44.6814 91.2724 45.9677C90.5883 46.9968 89.3425 49.4087 89.5556 50.5936C89.6027 50.6609 89.6399 50.7449 89.7161 50.7787C90.3565 51.0649 91.5326 50.8373 92.1996 50.6479C94.9936 49.8546 98.2139 46.8957 99.9768 44.6327C100.761 43.6257 104.864 36.5636 105.345 36.423C105.368 36.4163 105.392 36.4123 105.416 36.4067C105.492 36.3884 105.566 36.3706 105.645 36.3619C105.902 36.3333 106.468 36.314 106.667 36.4693C106.813 37.0911 105.353 38.9801 104.962 39.6922C104.702 40.0404 104.543 40.2939 104.322 40.6612C104.76 40.3285 104.962 40.0849 105.326 39.6761C106.328 38.414 112.07 33.7222 111.752 38.2156C111.667 39.4188 110.962 40.3622 110.432 41.4303C111.697 40.0786 115.854 34.7618 118.177 36.836C119.736 38.2291 116.408 42.3908 115.565 43.6476C114.73 44.8861 113.913 46.1367 113.114 47.3987C112.775 47.9326 112.059 48.9957 112.025 49.6107C112.121 49.8627 112.054 49.7752 112.295 49.9328C113.411 50.0615 117.46 46.3941 118.153 45.3782C120.048 42.601 122.735 38.7556 126.142 37.622C130.825 36.0639 129.459 40.9921 128.187 43.4871C130.496 43.1124 132.134 41.9792 133.769 40.3354C134.107 39.9946 135.348 38.5288 135.728 38.5531L135.801 38.6892C135.848 40.5215 131.743 43.0989 130.234 43.7398C129.464 44.0671 128.455 44.3464 127.632 44.5474C127.437 44.7568 127.261 45.0183 127.1 45.2551C125.348 47.8326 123.342 49.9481 120.542 51.402C119.442 51.9729 117.692 52.2882 116.926 50.9258C116.484 50.1387 116.771 48.6266 117.075 47.7697C116.065 48.6416 113.087 51.4416 111.752 50.7934C109.718 49.8067 111.457 47.113 112.263 45.8372C112.921 44.7879 113.601 43.7522 114.302 42.7306C114.754 42.0829 118.185 37.5851 116.875 37.0578C115.109 37.2686 109.536 43.5683 108.308 45.3071C107.744 45.9763 107.401 46.822 106.909 47.5225C106.654 47.8863 105.702 47.6165 105.432 47.2824C105.306 46.5292 111.809 37.8444 110.305 37.0755C108.477 37.3303 103.162 43.2062 101.977 44.8594C101.118 46.0802 100.275 47.3123 99.4484 48.5554C99.0609 49.1312 98.239 50.4228 97.7997 50.8443L97.7405 50.9001C97.422 50.9116 96.4923 51.0055 96.3051 50.7802C96.3975 50.2359 97.4763 48.6982 97.8192 48.0512C97.5784 48.2626 97.3345 48.4704 97.0881 48.6744C95.2813 50.1705 93.3093 51.5163 90.9352 51.8663C89.0993 52.1372 87.8081 51.0705 87.9978 49.1878C87.1435 49.0988 83.0372 54.305 81.5474 50.8561C80.9686 49.5153 82.2364 47.6869 82.8978 46.5899C83.5317 45.5385 84.1031 44.5078 84.7167 43.4469C85.1528 42.6833 85.6983 42.0009 86.0638 41.2021C85.2233 42.0551 84.5919 43.1074 83.8907 44.0736C82.8395 45.5221 78.6613 51.3995 77.3751 51.9217C77.1418 52.0164 76.9054 52.0033 76.6765 51.9013C76.4205 51.7871 76.2075 51.5422 76.1232 51.2771C75.934 50.6825 76.1327 49.9735 76.3412 49.4082C76.7533 48.2909 77.4076 47.3046 78.0065 46.2839C78.8043 44.9242 79.5516 43.5384 80.3636 42.1858C80.9445 41.2181 81.6269 40.2751 82.131 39.2672C78.5046 42.2912 76.0681 46.7934 72.6583 50.0735C71.2508 51.4274 68.7792 52.9868 67.6634 50.4258C67.0887 50.9324 66.4434 51.3526 65.7477 51.6733C64.6393 52.1871 63.6641 52.4048 62.4876 51.9755C60.6276 50.148 62.865 45.8791 63.9077 44.0781C63.0492 44.4283 62.0954 44.5731 61.2022 44.8899C60.7157 45.5022 60.2747 46.2328 59.7846 46.8705C58.368 48.7135 52.5634 54.6038 50.4819 51.1572C48.1741 52.5499 42.8792 52.4682 41.8935 48.918C40.737 44.7523 45.4946 40.4798 44.6724 37.0127C43.8016 37.2522 43.2244 37.3607 42.3441 37.5093C41.7435 38.177 41.0003 39.4239 40.4554 40.2068C36.622 45.7134 31.0976 51.7015 23.9504 52.0836C21.5915 52.2098 18.6903 51.6484 17.9518 49.0143C17.7247 48.1707 17.6336 47.116 18.2943 46.436C18.6221 46.094 19.0762 45.9019 19.5499 45.9048C20.2151 45.9151 20.8215 46.4627 20.8338 47.1455C20.852 48.1564 18.4891 47.795 18.6172 48.8225C18.9637 51.6022 23.2139 51.743 25.2881 51.2174C30.2048 49.994 33.8755 46.2408 36.9405 42.4176C38.2578 40.7745 39.1128 39.2614 40.2219 37.4846C39.9208 37.2896 39.5467 37.0674 39.4447 36.7148C39.3967 36.5544 39.4187 36.3812 39.5051 36.2379C39.8556 35.6487 41.0157 35.4196 41.6342 35.2793C42.4104 33.7359 43.5157 31.9321 44.341 30.37C44.8589 29.3897 46.2858 26.7482 46.8672 25.9702C46.7471 25.9699 46.6269 25.9677 46.5069 25.9633C42.2636 25.8044 44.3925 21.7473 42.9224 20.2065C42.0902 19.3345 40.5933 19.1196 39.4376 19.1084C35.4084 19.0696 30.5011 22.0618 27.6733 24.8589C25.5795 26.9301 23.939 29.8813 23.9325 32.88C23.93 34.0017 24.1904 35.1533 25.0133 35.9666C25.8493 36.7928 26.9211 37.1804 28.0903 37.1701C30.3818 37.15 33.0031 35.1999 34.5239 33.6277C36.0048 32.0967 37.8896 29.612 37.8245 27.3525C37.8046 26.6604 37.5345 25.9688 37.0181 25.4948C36.6713 25.1765 36.2333 25.0645 35.7703 25.0932C33.6044 25.2275 31.401 27.8544 30.2777 29.5051C29.8822 30.0862 29.6026 30.7979 29.1355 31.3197C29.0047 31.4658 28.9429 31.5511 28.7411 31.5604C28.7054 31.313 28.9045 30.922 29.0065 30.6854C29.7362 29.0277 30.7914 27.5335 32.1098 26.2916C33.2041 25.2631 34.3682 24.519 35.9481 24.5333C38.0084 24.5518 38.7433 25.8521 38.5879 27.8283C38.2343 32.3248 32.1167 38.1335 27.5602 37.7442C26.3317 37.6481 25.192 37.0672 24.3924 36.1296C21.1636 32.2864 25.459 25.6982 28.5973 23.1864C31.8506 20.5825 35.561 18.3058 39.9224 18.6606C42.5656 18.8755 44.662 19.7445 44.9414 22.7249C45.0631 23.806 45.2803 25.206 46.6377 25.2758C47.2295 25.3448 47.4034 25.0072 47.748 24.6041C49.168 22.9433 51.88 19.0468 54.2956 19.1404C55.0511 19.6907 53.4938 21.5354 53.0748 21.9954C52.2034 22.9533 51.2019 23.7843 50.0996 24.4638C49.861 24.6108 48.7509 25.1322 48.6629 25.2916C46.8663 28.5423 45.0894 32.1688 43.4927 35.4972C43.5924 35.5989 44.6372 36.1266 44.8644 36.2586ZM119.278 51.1025C123.195 49.3326 126.332 45.1746 128.052 41.3169C128.306 40.7468 128.953 38.6616 127.989 38.2687C127.905 38.2345 127.506 38.2585 127.387 38.2654C122.514 39.4672 115.302 52.0322 119.278 51.1025ZM52.0234 50.5044C51.712 50.7727 51.7367 50.6675 51.6854 51.0037C52.4195 52.9067 56.4757 48.861 57.1258 48.2916C58.6685 46.9404 63.4047 40.652 61.6918 38.6238L61.4569 38.5391C57.4809 38.9662 52.7562 46.3352 51.7286 49.8749C52.1611 49.5834 52.4888 49.3146 53.0168 49.2908L53.1962 49.3649C53.2976 49.9171 52.4359 50.2717 52.0234 50.5044ZM93.1545 43.8049C95.2214 42.7871 99.1647 40.5902 99.4427 38.0193L99.3454 37.8859L99.0934 37.866C97.8078 38.0961 96.5555 39.2116 95.8025 40.2227C95.3729 40.7998 93.0361 43.4231 92.9729 43.8635L93.1545 43.8049ZM49.504 24.0893C50.2925 23.4832 53.4679 21.0981 53.5185 20.1125L53.418 20.0006L53.2708 19.9965C51.6452 20.9325 50.2878 22.4402 49.2602 23.9996L49.3101 24.1113L49.504 24.0893Z" fill="#222222"/>
<path d="M53.2708 19.9966L53.418 20.0006L53.5185 20.1126C53.468 21.0982 50.2926 23.4833 49.5041 24.0894L49.3102 24.1113L49.2603 23.9997C50.2879 22.4403 51.6452 20.9326 53.2708 19.9966Z" fill="#FEFEFE" fill-opacity="0.01"/>
<path d="M78.2621 53.447C80.3698 53.1638 82.8866 53.4908 84.5628 54.8866C85.9561 56.0279 86.834 57.6797 87.0009 59.473C87.3762 63.5955 84.7744 67.7741 80.4336 68.1323C78.4871 68.2701 75.7989 68.0169 74.3283 66.6356C69.7278 62.3145 71.4726 54.0291 78.2621 53.447ZM80.3869 67.0839C84.7257 66.219 84.8084 59.3371 82.8858 56.3416C81.8677 54.756 80.316 54.2937 78.5231 54.4942C73.3119 55.3035 73.9878 64.0307 77.2837 66.4405C78.1039 67.046 79.1338 67.2947 80.1399 67.1303C80.2226 67.1166 80.3049 67.1012 80.3869 67.0839Z" fill="#222222"/>
<path d="M132.614 53.3621C135.111 53.0995 137.707 54.4064 138.042 57.1932C138.381 60.0153 137.615 64.0043 138.239 66.7211C138.706 66.8643 139.617 66.9995 139.637 67.5453L139.54 67.6309C138.993 67.7626 135.941 67.9605 135.571 67.761C135.432 67.2788 135.489 65.8069 135.496 65.2142C133.141 67.2107 130.219 69.8404 127.313 66.8356C126.94 66.3095 126.607 65.5853 126.557 64.9474C126.2 60.3155 131.378 59.4928 134.847 59.1663C135.077 59.1446 135.361 59.0902 135.499 58.9162C135.582 58.3429 135.383 57.1859 135.105 56.7019C133.942 54.6768 131.501 54.5729 129.65 55.5555C129.237 56.0804 128.976 57.055 128.538 57.5432C128.263 57.6393 128.366 57.6457 128.136 57.5561C127.815 57.1729 127.682 55.7297 128.066 55.3491C129.215 54.2096 131.042 53.5968 132.614 53.3621ZM130.19 65.9014C131.867 66.8292 134.27 65.6619 135.322 64.1828C135.703 63.6459 135.495 60.8593 135.515 59.9759L135.446 59.8872L135.244 59.9284C132.683 60.3156 128.832 60.9945 129.368 64.4082C129.464 65.0173 129.769 65.4733 130.19 65.9014Z" fill="#222222"/>
<path d="M120.694 53.6294C121.948 53.7314 123.214 53.7143 124.426 53.8299C124.526 53.9732 124.498 53.9173 124.478 54.1342C124.105 54.683 123.05 54.7894 122.352 55.2722C120.68 56.4284 119.042 58.3603 117.472 59.4847C119.569 61.6164 121.61 63.9502 123.744 66.0775C124.242 66.575 124.728 66.8467 125.187 67.3199C125.259 67.395 125.188 67.5767 125.159 67.6852C124.998 67.844 124.875 67.8533 124.66 67.8697C121.349 68.1234 119.712 65.5226 117.538 63.2399C116.746 62.4042 115.933 61.59 115.098 60.7981C115.13 62.2856 114.996 65.1067 115.389 66.5778C115.433 66.7423 115.631 66.7648 115.778 66.8009C116.292 66.9856 116.9 66.9748 117.182 67.1397C117.294 67.3728 117.267 67.2771 117.223 67.589C117.131 67.7066 117.08 67.8358 116.887 67.8293C115.24 67.7738 113.584 67.7825 111.936 67.7559C111.436 67.7478 110.858 68.0164 110.529 67.7774C110.45 67.5081 110.476 67.452 110.549 67.1933C110.729 67.0177 111.678 66.8986 111.999 66.8423C112.952 66.1289 112.373 58.0952 112.496 56.6026C112.73 53.7572 110.743 55.163 110.482 54.1415C110.574 53.8529 110.503 53.9385 110.729 53.7946C111.794 53.7561 116.623 53.4733 117.23 54.0148C117.283 54.0621 117.267 54.1331 117.272 54.201C116.956 54.6273 116.074 54.6709 115.4 54.9184C115.012 56.0641 115.109 59.2287 115.112 60.5455C117.006 58.702 119.202 57.0125 120.819 54.8584C120.871 54.7902 120.639 53.9808 120.694 53.6294Z" fill="#222222"/>
<path d="M67.1336 53.6298C67.2019 53.616 67.2332 53.6348 67.3107 53.6519C67.5299 54.1213 67.1628 64.348 67.5382 66.354C68.2532 66.8205 68.9066 66.8538 69.6165 67.232C69.6724 67.5525 69.5753 67.7014 69.3279 67.8758C67.3187 67.7887 65.4601 67.7231 63.4428 67.8511C63.161 67.869 62.7344 67.9054 62.4783 67.8109C61.7094 66.7825 64.5035 67.0186 64.5799 65.9639C64.8419 62.3492 64.7188 58.7242 64.7676 55.1029C63.1103 57.1813 61.6308 59.7237 60.046 61.8068C59.4023 62.9273 58.3115 64.1197 57.6205 65.2586C56.2103 67.5828 59.0582 66.3788 59.3349 67.427C59.2787 67.6518 59.2778 67.7162 59.0965 67.8526C58.8106 67.9026 57.4995 67.7605 57.0559 67.7534C56.244 67.7405 53.8715 67.9372 53.2452 67.7726C53.1537 67.5992 53.1904 67.4807 53.2126 67.2821C53.4978 67.1462 54.7139 66.5462 54.856 66.401C56.1702 65.0593 63.0447 56.1685 63.2311 55.1403C62.8489 54.6256 61.0072 54.8006 60.5343 54.2119C60.517 53.9602 60.4991 54.0614 60.695 53.799C60.9302 53.7751 61.1307 53.7837 61.3642 53.7824C63.2733 53.7718 65.2326 53.7977 67.1336 53.6298Z" fill="#222222"/>
<path d="M99.6714 53.6099L100.512 53.5718C100.341 54.306 100.178 57.1946 99.6592 57.4021C99.1648 57.1577 98.9735 55.2414 98.5893 55.0249C97.9019 54.6375 94.8397 54.7968 94.0689 54.8028C94.0445 56.2989 93.8954 65.5315 94.3582 66.3339C94.7043 66.9338 95.9785 66.6896 96.3619 67.3535C96.3692 67.644 96.3895 67.5281 96.2306 67.8142C95.8837 67.8663 93.0046 67.7725 92.4089 67.7706C91.4694 67.7971 90.4352 67.8731 89.499 67.8254C89.208 67.8106 89.1983 67.6817 89.1561 67.4545C89.6733 66.3779 91.51 67.4627 91.3787 64.9484C91.2376 62.264 91.8788 57.5518 91.1258 55.0993C90.5697 54.8234 89.5152 54.6249 89.2031 54.2875C89.1715 53.9432 89.1424 54.0697 89.2818 53.7864C89.5436 53.6389 91.4532 53.7533 91.8877 53.7619C94.4441 53.8124 97.1295 53.8588 99.6714 53.6099Z" fill="#222222"/>
<path d="M106.084 53.3516C106.185 53.439 106.242 53.5558 106.241 53.6935C106.22 57.9347 105.87 62.5454 106.392 66.7554C106.802 66.792 108.343 66.9736 108.531 67.3016C108.448 67.9161 108.24 67.8285 107.728 67.8319C105.698 67.8453 103.326 67.6101 101.324 67.8637L101.177 67.7464C101.082 67.4868 101.103 67.5915 101.16 67.2733C101.632 66.7533 102.212 67.0894 102.796 66.8869C102.981 66.8228 103.097 66.7119 103.17 66.5309C103.577 65.5287 103.61 56.4495 103.243 55.7476C102.992 55.2689 101.786 55.5477 101.296 55.3811C101.093 55.3122 101.05 55.2432 100.958 55.0639C100.982 54.6803 101.13 54.6045 101.506 54.5166C103.055 54.1552 104.568 53.8486 106.084 53.3516Z" fill="#222222"/>
<path d="M103.382 49.0062C103.907 48.9005 104.452 49.0403 104.86 49.3857C105.27 49.7312 105.498 50.2445 105.482 50.7796C105.457 51.6095 104.853 52.3079 104.035 52.4532C103.534 52.5423 103.018 52.4089 102.623 52.0875C102.227 51.7662 101.99 51.2888 101.975 50.7794C101.949 49.9243 102.544 49.1751 103.382 49.0062Z" fill="#222222"/>
<path d="M104.322 40.6614C104.544 40.2941 104.702 40.0406 104.962 39.6923L105.326 39.6763C104.962 40.0851 104.76 40.3287 104.322 40.6614Z" fill="#FEFEFE" fill-opacity="0.054902"/>
</svg>
